<svg xmlns="http://www.w3.org/2000/svg" viewBox="0 0 517 483.83"><defs><style>.cls-1{fill:#3497d3;fill-rule:evenodd;}</style></defs><g id="Layer_2" data-name="Layer 2"><g id="New_Layer" data-name="New Layer"><path class="cls-1" d="M156.6,2,154,4v47.8l2.6,2a10.82,10.82,0,0,0,5.8,2.1c4.6,0,12.8,4.3,16.3,8.4,7.3,8.9,7.1,22.4-.5,30.8-8.3,9.2-19.4,10.3-30.5,3-5.1-3.4-8.7-9.8-9.4-16.7-.5-4.4-1.1-6-3.1-7.5-5-4-10.8-1.4-11.9,5.3-.8,5,2,15.1,5.8,20.8l2.9,4.4-49.8.5c-36.7.4-50.4.8-52.5,1.8a25.14,25.14,0,0,0-12.3,11.4l-2.9,5.3v136l2.9,5.3a23.62,23.62,0,0,0,16,12.2c3.6.8,42.2,1,131.1.8l126-.3,4-2.2a25.28,25.28,0,0,0,11.4-12.3c2-4.4,2.1-6.2,2.1-71.5s-.1-67.1-2.1-71.5a25.28,25.28,0,0,0-11.4-12.3c-3.9-2.2-5-2.2-54.4-2.5-47.7-.3-50.2-.4-48.8-2a40.81,40.81,0,0,0,4.4-7.7c2.5-5.3,2.8-7.1,2.8-16s-.3-10.7-2.7-15.7a42.22,42.22,0,0,0-18.1-18.8c-3.3-1.6-6.6-3-7.3-3-1,0-1.4-4.4-1.6-19.1-.3-18.7-.4-19.1-2.7-21C163.1-.69,159.9-.59,156.6,2ZM288,121.41a11.54,11.54,0,0,1,4,3.4c1.4,2.7,1.4,130.5,0,133.2-2.8,5.1,2.7,4.9-131.4,4.9H36L32.8,260l-3.3-2.9V125.71l3.3-2.9,3.2-2.9H160.6C269.7,119.91,285.5,120.11,288,121.41Z"/><path class="cls-1" d="M63,138.51a20,20,0,0,0-10.1,9.6c-1.8,3.5-1.9,6.4-1.9,43.3,0,37.3.1,39.8,2,43.4,3.9,7.7,11.3,11.7,20.5,10.9,8.4-.7,15.1-6.4,17.5-14.9,1.4-4.7,1.3-74.3-.1-79.2-1.3-4.7-7.2-11.5-11.6-13.4C75.1,136.51,67.4,136.61,63,138.51Zm12.4,15.6c2.4,3.4,2.4,71.2,0,74.6-1.7,2.4-6.2,3-8.2,1-1.7-1.7-1.7-74.9,0-76.6C69.2,151.11,73.7,151.71,75.4,154.11Z"/><path class="cls-1" d="M123,138.51a20,20,0,0,0-10.1,9.6c-1.8,3.5-1.9,6.4-1.9,43.3,0,37.3.1,39.8,2,43.4,3.9,7.7,11.3,11.7,20.5,10.9,8.4-.7,15.1-6.4,17.5-14.9,1.4-4.7,1.3-74.3-.1-79.2-1.3-4.7-7.2-11.5-11.6-13.4C135.1,136.51,127.4,136.61,123,138.51Zm12.4,15.6c1.4,1.9,1.6,7.2,1.6,37.3s-.2,35.4-1.6,37.3c-1.7,2.4-6.2,3-8.2,1-1.7-1.7-1.7-74.9,0-76.6C129.2,151.11,133.7,151.71,135.4,154.11Z"/><path class="cls-1" d="M183,138.51a20,20,0,0,0-10.1,9.6c-1.8,3.5-1.9,6.4-1.9,43.3,0,37.3.1,39.8,2,43.4,3.9,7.7,11.3,11.7,20.5,10.9,8.4-.7,15.1-6.4,17.5-14.9,1.4-4.7,1.3-74.3-.1-79.2-1.3-4.7-7.2-11.5-11.6-13.4C195.1,136.51,187.4,136.61,183,138.51Zm12.4,15.6c1.4,1.9,1.6,7.2,1.6,37.3s-.2,35.4-1.6,37.3c-1.7,2.4-6.2,3-8.2,1-1.7-1.7-1.7-74.9,0-76.6C189.2,151.11,193.7,151.71,195.4,154.11Z"/><path class="cls-1" d="M243,138.51a20,20,0,0,0-10.1,9.6c-1.8,3.5-1.9,6.4-1.9,43.3,0,37.3.1,39.8,2,43.4,3.9,7.7,11.3,11.7,20.5,10.9,8.4-.7,15.1-6.4,17.5-14.9,1.4-4.7,1.3-74.3-.1-79.2-1.3-4.7-7.2-11.5-11.6-13.4C255.1,136.51,247.4,136.61,243,138.51Zm12.4,15.6c1.4,1.9,1.6,7.2,1.6,37.3s-.2,35.4-1.6,37.3c-1.7,2.4-6.2,3-8.2,1-1.7-1.7-1.7-74.9,0-76.6C249.2,151.11,253.7,151.71,255.4,154.11Z"/><path class="cls-1" d="M335.5,206.81a30,30,0,0,0-7.2,5.2c-6.4,6.8-6.3,5.6-6.3,75v62.9l-156.6.2-156.6.3-1.9,2.4C5.1,355,0,357.11,0,387.51c0,21.5,5.4,33.1,6.1,34.7,1.6,3.5,5,4.7,13.1,4.7h7l-.6,3.4c-1.1,5.8,1.2,17.6,4.9,25.4,15.3,32.4,59.8,37.8,82.4,10.1,2.5-3,4.7-5.4,5.1-5.4s2.6,2.4,5.1,5.4A49.23,49.23,0,0,0,210,441c.6-4.1.8-8.9.4-10.7l-.6-3.4H392v7.2c0,36.5,37.8,60.4,70.6,44.7a48.1,48.1,0,0,0,27.8-43.1l.1-8.8h9.7c10.7,0,14-1,15.7-4.7.7-1.6,1.1-13.2,1.1-34.7,0-37.8.3-36.6-9.3-37.4l-5.7-.4v-22.8c0-24.6-.7-29.3-5.4-35.4-3.6-4.8-10.3-7.7-19.3-8.5l-7.5-.6-22.7-35.5c-18.5-28.9-23.4-36-26.9-38.5l-4.4-3-38.1-.2C342.1,204.91,339.2,205,335.5,206.81Zm76.7,14.3c.9.7,12,17.7,24.8,37.8s23.9,37.1,24.8,37.7c1,.8,4.9,1.3,10.5,1.3,8.5,0,9,.1,11.8,2.9l2.9,2.9v46.2H337v-62.4c0-61.5,0-62.4,2.1-65l2-2.6h34.8C402.2,219.91,411,220.21,412.2,221.11ZM502,388.41v23.5H485.4l-2.2-3.8c-2.4-4.3-11-12.7-16.2-15.9-13.5-8.2-34.4-8.8-49-1.3a50.61,50.61,0,0,0-17.4,15.4l-3.7,5.6H205.3l-3.1-4.8A49.73,49.73,0,0,0,150.8,386c-9.7,2-17.6,6.6-26,15l-7.7,7.7-2.1-3.4c-5.6-9-20.1-17.6-32.7-19.4-19.2-2.7-40.2,6.7-49,21.7-2.4,4.2-2.6,4.3-7.9,4.3H20v-47H502ZM89.2,403.11a35.94,35.94,0,0,1,16.5,16c2.5,4.8,2.8,6.3,2.8,15.3s-.3,10.5-2.8,15.3a35.64,35.64,0,0,1-16.3,15.8c-5.1,2.5-7.1,2.9-14.4,2.9-7.6,0-9.2-.3-15.2-3.3a34.34,34.34,0,0,1-10.7-53.7C58.6,400.61,75.9,397,89.2,403.11Zm87.2.7c28.2,13.9,24.1,54.9-6.3,63.8-15.2,4.4-32.3-3.3-39.7-17.9-3.6-7-4.4-18.2-2-26C134.7,403.71,157.2,394.31,176.4,403.81Zm280-.3a36.12,36.12,0,0,1,16.4,17.2c2.2,4.6,2.6,7.2,2.7,13.7,0,7.1-.4,8.8-3.3,14.7a34.33,34.33,0,0,1-17.1,16.7c-4.7,2.2-7,2.6-14.1,2.6-10.8,0-17.5-3-24.9-11-11.5-12.6-12.2-31-1.7-44.7C423.5,400.61,442.2,396.51,456.4,403.51Z"/><path class="cls-1" d="M365.5,232c-4.3,1.2-10.2,6.4-12.8,11.2-2.1,4-2.2,5.3-2.2,27.8,0,21.9.1,23.8,1.9,25.8s2.5,2.1,43.8,2.1c56.2,0,54.3,2.3,29.2-34.3-18.7-27.2-20.1-28.9-25.9-31.7-3.5-1.7-6.1-2-17.6-1.9C374.5,231,367.2,231.51,365.5,232Zm27.9,14.5c1.3.5,21.8,29.1,26,36.1.6,1-5.1,1.3-26.9,1.3H364.9l.3-17.1c.4-21.5-.1-20.9,15.8-20.9C387,245.91,392.6,246.21,393.4,246.51Z"/></g></g></svg>