<svg xmlns="http://www.w3.org/2000/svg" viewBox="0 0 516.89 511.71"><defs><style>.cls-1{fill:#3497d3;fill-rule:evenodd;}</style></defs><g id="Layer_2" data-name="Layer 2"><g id="New_Layer" data-name="New Layer"><path class="cls-1" d="M334.7,1.51a105.51,105.51,0,0,0-40.2,16.8c-7.5,5.4-19,17.2-24.2,24.8l-4.7,6.8h-10c-22.8.1-49.4,5.6-72.8,15.2L173.1,69l-6.2-5.1c-11.6-9.7-23.3-14-37.9-14-16.3,0-29.3,5.3-40.6,16.5-19.7,19.7-22.8,49.3-7.4,72.9l4.5,7-8.1,16c-12.3,24.5-18.9,47-21.6,73.3l-1.2,12.3H44.2c-11.5,0-15.7,1.5-19.7,6.8-2,2.6-2,4.5-2.3,88.4l-.2,85.7-4,1.1c-4.9,1.3-9.9,5.4-11.6,9.7-.9,2.1-6.4,7.3-6.4,14.6,0,14.1,6.9,18.9,14,22.4,4.2,2.2,5.6,2.3,25.1,2.3H59.8l4.7,7c22.7,34.1,73.2,34.5,95.1.6l4.9-7.5h47.1l47-.1,1.6,3.2c5.1,10.7,20.1,22.9,33.1,27,9.4,3,25.5,3.2,33.7.4,13.8-4.6,27.4-15.3,33-25.8l2.4-4.7,14.1-.3c13.7-.3,14.3-.4,17.8-3.1,6.2-4.7,6.7-6.7,6.7-24.4,0-13.8-.3-17.2-2.7-27L395.6,413l11.5-11.8c6.3-6.5,13.6-14.6,16.3-18l4.9-6.3,15.4,20.6c8.5,11.3,15.8,20.2,16.3,19.8,5.3-5.9,49.4-66.5,51.4-70.8,10.4-22,5.8-47.7-11.8-65.2-7.8-7.8-17.6-13.4-27.1-15.5l-5.5-1.2v-12.8c0-30.2-7.7-60.7-22.5-89.6l-6.3-12.3,4-9.1c6.5-15.2,8.2-23.9,8.2-41.9-.1-17.1-1.5-24.1-7.5-38.5C425.5,18.51,379.4-6.59,334.7,1.51Zm36.9,17.4c28.2,7.1,50.7,28.7,59.6,57,2,6.5,2.3,9.5,2.3,23,0,30.3-1.8,33.8-47,91.5-18.7,23.8-34.3,43.3-34.7,43.2s-50.4-63.3-65-82.3c-24.9-32.4-22.9-78.7,4.5-108.1,11.9-12.7,24.3-20.1,41.2-24.4C342.6,16.31,361.2,16.31,371.6,18.91ZM145.5,69.71c7.3,3.5,15.3,10.4,18.9,16.6,6.2,10.6,7.3,25.7,2.5,36.6-1.3,3-10.4,16.2-20.2,29.3l-17.8,23.9-18.3-24.5c-10.5-14-19.1-26.5-20.2-29.3-1.4-3.7-1.9-7.5-1.9-15.4,0-9.9.2-11,3.3-17.2,3.6-7.4,10-14.5,16.6-18.3C119.2,65.11,134,64.41,145.5,69.71Zm112.1-1.6c-8.4,28.2-5.3,58.1,8.6,82,2.8,4.8,62.7,82.5,85.3,110.6.2.2,16.8-20.7,37-46.5s37.4-47.4,38.1-48.2c1.1-1.3,2,0,6,8.5,11.7,25.1,18.4,54.7,18.4,81.3v8.9l-5.2,1.2c-40.1,9.3-57.5,58.3-32.3,91.2,1.9,2.6,3.5,5.3,3.5,6,0,1.8-11.2,15.8-19.4,24.5-4.6,4.9-6.6,6.4-7,5.3-.3-.8-5-19.5-10.5-41.4-11.2-44.7-11.5-45.6-21.2-51l-5.4-3.1-42.2-.3-42.3-.3V278c0-17.9-.1-19-2.3-22.2a24.8,24.8,0,0,0-5.6-5.6l-3.4-2.3H164.9c-51,0-93-.3-93.2-.8-.7-1.3,1.2-18.4,3.4-29.2,3.4-17.2,11.5-39.6,19.1-52.8l2.5-4.3,15.8,21.1c8.7,11.6,16.2,20.9,16.6,20.8,1.7-.6,48.1-63.5,50.9-68.9,6.8-13.3,8.4-29.8,4.1-42.9-1.1-3.6-2.1-6.8-2.1-7.2,0-1.1,20-8.6,30-11.3a215.49,215.49,0,0,1,41.9-6.3C258,65.91,258.2,66,257.6,68.11ZM104.2,295.41l.3,31.5,20.3-10.3,20.2-10.2,20.5,10.3c11.3,5.6,20.7,10.2,21,10.2s.5-14.2.5-31.5v-31.5h66v165H164.5l-3.4-5.5A57.55,57.55,0,0,0,86,402.91a61.84,61.84,0,0,0-10.2,6.7c-5.1,4.1-13.3,14.2-14.3,17.4-.6,1.7-1.6,1.9-12.1,1.9H38v-165h66Zm65.8-13.5c0,9.9-.2,18-.5,18s-5.8-2.6-12.3-5.9l-11.7-5.9L134,294c-6.3,3.2-11.8,5.8-12.2,5.8s-.8-8-.8-17.9v-18h49Zm307.3,3.3a41.26,41.26,0,0,1,19.4,19.5c2.6,5.3,2.8,6.6,2.8,17.2,0,9.5-.4,12.3-2.1,16-2.5,5.4-37.3,52.2-38.5,51.8-.5-.2-8.7-10.9-18.4-23.8-19.1-25.6-21.4-30-22.3-41.7a41.22,41.22,0,0,1,23.8-39.6c6.9-3.1,9.8-3.6,19.2-3.4C468.9,281.51,470.7,281.91,477.3,285.21Zm-124.9,30.9c1.5,1.4,3.1,4.5,4,8l1.4,5.8H337.2c-25.9,0-29.5,1.3-33.7,11.3-1.7,4.2-2.1,21.2-.5,26.6,1,3.5,4.9,8.4,8.5,10.4,1.3.8,11.5,1.4,30.4,1.7l28.5.5,5.8,23c3.1,12.6,5.8,23.6,5.8,24.2,0,1-2.6,1.3-9.7,1.3h-9.8l-3-5.1c-6.7-11.3-20.2-21.4-34.1-25.5-8.3-2.5-22.9-2.3-31.4.5-7,2.2-16.9,7.7-21.1,11.7-1.4,1.3-2.8,2.4-3.2,2.4s-.7-22.3-.7-49.5v-49.5h80.9Zm10,32.5c.3,1,1,3.8,1.6,6.3s1.3,5.3,1.6,6.2c.5,1.7-1.1,1.8-23,1.8H319v-16h21.4C360,346.91,361.9,347.11,362.4,348.61Zm-233.2,68c21.2,10.1,30,33.8,20.4,54.8-3.5,7.7-11.5,15.8-19.5,19.8-6.2,3-7.2,3.2-17.6,3.2-10.2,0-11.5-.2-17.6-3.1-26.4-12.5-31.8-47.7-10.3-67.3,9-8.2,17.6-11.3,30.1-10.7C121.2,413.61,124.2,414.31,129.2,416.61Zm198.2.1c17.1,8,27,26.3,23.7,43.8-2.5,13.7-10.6,24.6-22.9,30.6-6.3,3.1-7.2,3.3-17.7,3.3-9.9,0-11.6-.3-16.8-2.7a43.63,43.63,0,0,1-23.8-31c-3-16.5,5.9-34.6,20.9-42.6,8-4.3,12.2-5.2,21.9-4.8C319.3,413.61,322.2,414.31,327.4,416.71ZM55,453.91v8H22v-16H55Zm198,0v8H170v-16h83Zm132,0v8H368v-16h17Z"/><path class="cls-1" d="M338.5,34.41a66.29,66.29,0,0,0-49.2,43.7c-3.5,9.8-4.2,24.4-1.8,35.2,4.2,18.9,17.7,36.3,34.7,44.5a66.68,66.68,0,0,0,50.5,3.7c30.9-10,50.2-42.8,43.9-74.6C409.4,50.51,373.8,26.61,338.5,34.41Zm34.8,20.3c17.4,8.6,27.7,25.1,27.7,44.1a46.54,46.54,0,0,1-5.5,23c-3.2,6.5-11,14.9-17.4,19-24.3,15.6-57.7,6.1-70.5-20-11.2-23-3.8-49.1,17.9-63.5,8.8-5.9,15.2-7.5,28.2-7.1C364.6,50.51,365.2,50.71,373.3,54.71Z"/><path class="cls-1" d="M119.4,84.31c-4.5,2-10.2,7.4-12.5,11.8-6.2,12.2-1.4,26.5,11,33,16.2,8.5,35.5-3.4,35.5-21.7,0-10.6-6.9-20.5-16.3-23.3C132,82.51,123.3,82.71,119.4,84.31Zm13.5,16.1c8.7,4.5,2.4,17.6-6.9,14.4-5.5-2-6.9-9.1-2.5-13.4C126.3,98.51,128.9,98.31,132.9,100.41Z"/><polygon class="cls-1" points="203 222.91 203 230.91 211.5 230.91 220 230.91 220 222.91 220 214.91 211.5 214.91 203 214.91 203 222.91"/><polygon class="cls-1" points="236 222.91 236 230.91 244.5 230.91 253 230.91 253 222.91 253 214.91 244.5 214.91 236 214.91 236 222.91"/><polygon class="cls-1" points="269 222.91 269 230.91 277.5 230.91 286 230.91 286 222.91 286 214.91 277.5 214.91 269 214.91 269 222.91"/><path class="cls-1" d="M451.2,298.81c-20.5,7.2-22.3,35.2-3,45.2s41.6-9.5,34.3-30A24.51,24.51,0,0,0,451.2,298.81ZM464.4,316c1.9,1.5,2.6,2.9,2.6,5.7,0,7.5-8.3,11-13.5,5.7C446.2,320.21,456.3,309.61,464.4,316Z"/><path class="cls-1" d="M107.2,430c-11.4,2.2-19.1,12-19.2,24.2,0,6.9,1.9,12,6.3,16.5,12.2,12.7,32.1,9.8,40-5.7C143.5,446.61,127.6,426,107.2,430Zm9.6,17.5a7.9,7.9,0,0,1,3.1,9.4c-2,5.5-9.1,6.9-13.4,2.5C99.7,452.71,109,442,116.8,447.51Z"/><path class="cls-1" d="M305.8,429.91a31.21,31.21,0,0,0-8.5,3.6c-15.8,9.8-14.7,33.8,2.1,42.7,5.8,3,16.5,3,22.2,0a25.19,25.19,0,0,0,13.4-22.7C335,438.71,320.6,427,305.8,429.91Zm10.4,19c2.5,2.6,2.9,3.6,2.4,6.3-1.5,7.7-11.6,9.4-15.1,2.6-2.1-4-1.9-5.7,1.4-9C308.8,445,312.3,445,316.2,448.91Z"/></g></g></svg>