<svg xmlns="http://www.w3.org/2000/svg" viewBox="0 0 466.64 511"><defs><style>.cls-1{fill:#3497d3;fill-rule:evenodd;}</style></defs><g id="Layer_2" data-name="Layer 2"><g id="New_Layer" data-name="New Layer"><path class="cls-1" d="M390.94.67a65.77,65.77,0,0,0-38.1,19.4c-6.4,6.3-8.9,9.8-12.2,16.5-5.1,10.4-7.2,18.3-7.2,27.2,0,3.7-.4,6.8-.9,6.8a75.42,75.42,0,0,1-9.2-3.9c-15.5-7.1-35.9-13.2-55.9-16.7-12.8-2.2-47.6-3-61.1-1.5a234.55,234.55,0,0,0-167.1,101.2c-52,76.6-52.3,180.1-1,257.4,55.3,83.2,154.9,121.3,251.9,96.4,39.8-10.2,79.4-33.3,107.9-63.1,60.7-63.3,80.5-153,52.3-237.3-4-12.1-17.3-38.9-24.8-50-6-9-6-9-3.8-10.5,7.8-5.4,20.4-17,26-24.1,12.7-15.9,18.8-32.3,18.9-50.9.1-16.4-4-29-13.6-41.7C439.14,7.57,413.74-2.83,390.94.67Zm21.4,14.4c22.2,5.3,38.8,24.8,40.8,47.9,1.6,19.6-7.2,39.4-25.1,56.4-8.2,7.8-24.6,19.2-27.6,19.2-3.6,0-20.6-12.3-30.1-21.9-15.4-15.4-21.9-28.6-22.7-46.2-.5-11.6.8-18.7,5.4-27.8A48.89,48.89,0,0,1,370,23C383,14.47,397.74,11.67,412.34,15.07Zm-150.4,49.4c17.7,2.6,40,8.3,39.3,10-.2.4-3.7,3.9-7.9,7.9l-7.6,7.2h-31.9c-23.3,0-32.5.4-34.3,1.3-1.3.6-10.9,13.1-21.2,27.7-18.6,26.3-20.6,29.9-18.1,33.6.4.6,9,7.5,19.2,15.3s18.5,14.4,18.5,14.6-8.3,9.2-18.5,20-19,20.8-19.7,21.9c-.9,1.5-1.2,10.7-1.3,33.3,0,31,0,31.2,2.3,33.6,1.6,1.8,11.2,5.7,33.5,13.8l31.2,11.3v16.1c0,14.5.2,16.5,1.9,18.6,1.1,1.3,8.5,8.2,16.5,15.4l14.5,13,.1,14.4c0,12,.3,14.8,1.7,16.3s3.5,1.8,21.3,1.8c18.2,0,19.8-.1,21.4-1.9,1-1.1,11.4-18.7,23.2-39.2l21.4-37.2v-35.2l12-12.2,12-12.2v-16.9c0-12.2-.4-17.3-1.3-18.6s-8.3-3.8-21.8-7.6l-20.4-5.8-7.7-14.8c-4.2-8.1-8.2-15.1-9-15.5s-13.8-2.6-29-5l-27.8-4.3v-2.8c0-3.3-3.6-2.2,40.3-11.9l32.8-7.2,14.8,14.6,14.8,14.7h54l3.6,9.2a222.75,222.75,0,0,1,12.7,51.3c1.5,11.4,1.5,40.4.1,51.5q-10.35,77.1-64.7,130.2c-17,16.6-32.1,27.3-54.9,38.8-42.8,21.7-90.1,28.1-139,18.9-22.9-4.3-53.6-16.5-72.7-28.8l-7.8-5v-39l13.4-8c13.9-8.4,14.9-9.2,16-12.8.5-1.7-.2-3.1-2.9-6.1-1.9-2.2-3.5-4.2-3.5-4.6s1.6-3,3.5-5.9l3.5-5.2v-13.5c0-14.7-.1-15.1-6.3-21.8l-3.1-3.2,5.9-5.2c12.7-11.4,23.3-27.9,27.7-43.4,3.2-11.4,3.2-28.9,0-39.4-7.6-24.4-27-41.8-52-46.6-9.3-1.8-14.6-1.7-24.7.2-4.4.8-8.6,1.6-9.4,1.7s-1.9-1.3-2.6-3.3l-1.2-3.5,14.1-14.9c13.5-14.2,14.5-15,24.1-19.8,12-6,13.5-7.2,13.5-11,0-1.7-4.7-12.5-11-25.5-6-12.4-10.8-22.9-10.5-23.3,1-1.6,17.6-12,27.5-17.3q35.55-18.75,79.5-24C220.14,62,249.94,62.77,261.94,64.47ZM327.74,84l7.9,4.1,3.3,7.9c5.1,11.9,9.2,17.9,18.9,28.2,10.3,11,22.7,20.6,33.8,26.3,7.8,4,8,4.1,11.6,2.5s3.7-1.5,5.8,1.2c2.6,3.2,14.4,22.6,14.4,23.7,0,.4-9.1.7-20.2.7H383l-14.6-14.4c-8.1-8-15.7-14.7-17.1-15.1s-20.1,3.4-44.9,9c-35,7.8-42.8,9.9-44.2,11.6s-1.8,4.1-1.8,13c0,9.6.2,11.1,2,12.9,1.1,1.1,2.4,2,3,2,1.2,0,52.8,7.9,55.7,8.5,1.6.4,3.9,4,9.2,14.5,3.9,7.6,8,14.5,9.1,15.3s10.1,3.6,20,6.3l18,4.9v21l-10.6,10.5c-5.8,5.8-11.2,11.7-12,13.2-1.1,2-1.4,7-1.4,20.2v17.6L334,363.27l-19.4,33.8-11.1.3-11.1.3v-24.4l-3.5-3.3c-2-1.8-9.4-8.6-16.5-15l-13-11.7v-17.2c0-12.3-.4-17.6-1.3-18.9-.7-.9-15.1-6.8-33.2-13.4l-32-11.7-.2-26-.3-26,21-22.5c11.5-12.4,21.2-23.5,21.6-24.7a7.19,7.19,0,0,0-.8-4.6c-1-1.9-22.6-19.4-38.6-31.2-.1-.1,6.6-10,15-21.9l15.2-21.6h64.9l12.6-12.5c10-9.8,13-12.3,14.6-11.9C319,79.57,323.44,81.67,327.74,84Zm-227.8,47.3c6.5,13.3,8.2,17.9,7.3,18.5-.7.5-4.2,2.4-7.8,4.2-5.2,2.7-10,7-24.2,21.4-10.9,11-17.8,18.7-17.8,19.9s1.1,5.3,2.5,9.4l2.6,7.4-3.3,2.5c-1.8,1.4-5.1,4.2-7.3,6.2-3.8,3.4-4.9,3.8-16.2,5.7-16.3,2.8-15.7,2.9-14.8-1.7,1.5-8.3,9-28.5,15.5-41.7a209.55,209.55,0,0,1,30.5-46.3c8.8-10.3,22-23.1,23.8-23.2C91.14,113.57,95.34,121.57,99.94,131.27Zm10.4,86.8c19,4.5,35.2,21.1,39.2,40.2,2.5,12.1,0,27.3-6.6,40.3-7.3,14.3-25.4,32.1-40.8,40.1-4.5,2.4-5.5,2.1-13.9-3.3-16.2-10.4-28.7-23.3-35.7-36.7-5.7-11-7.5-17.9-7.5-29.1-.1-15.3,4.6-26.4,15.8-37.6C74.24,218.57,91.74,213.77,110.34,218.07Zm-74.4,24.2a81.6,81.6,0,0,0-4.9,18.5l-.7,5.8H14.44v-2.8c0-3.1,2-19.5,2.4-19.9.5-.6,14-3.1,17-3.2C36.14,240.57,36.54,240.87,35.94,242.27Zm-2.3,46.4c5.9,24.3,27.7,49.3,55.5,63.6,8.3,4.3,8.4,4.3,12.1,2.8,2-.9,6.4-3.2,9.6-5.1l5.9-3.5,3.4,3.2,3.3,3.3v20.7l-4.5,6.7c-4.8,7.1-5.6,11.3-2.9,14.3.9,1,1.3,2.2,1,2.7s-5.1,3.6-10.5,6.8c-5.7,3.4-10.4,6.9-11,8.2s-1.1,9.3-1.1,18.8c0,15.6-.1,16.4-1.8,15.5-3.1-1.7-23.5-22.2-29.9-30.1-29.1-36.2-45.6-79.3-48.7-127.3l-.4-7.7h18.3Z"/><path class="cls-1" d="M390.94,32.87c-7.3,2.5-12.2,5.6-16.8,10.7a32.68,32.68,0,0,0-8.7,23c0,10.5,2.8,17.1,10.5,24.7,5.4,5.3,7.3,6.5,13.5,8.4,17.4,5.3,35.2-2.6,42.8-18.9,2.2-4.7,2.6-7.2,2.7-14.2s-.4-9.4-2.6-14.1c-5.8-12.4-16.9-19.9-30.2-20.5A40.08,40.08,0,0,0,390.94,32.87ZM411.54,49c10.8,7.2,13,21.7,4.6,31.2a20.91,20.91,0,0,1-33.1-1.4c-3.4-4.8-4.6-13.6-2.7-19.4,1.5-4.4,6.5-9.6,11.6-12C397.54,44.77,406.14,45.47,411.54,49Z"/><path class="cls-1" d="M88.14,235c-6.7,1.9-15,7.9-19.1,13.9-12.3,18-5.7,42.1,14.2,51.9,4,1.9,6.3,2.3,14.7,2.3,11.8,0,17.1-2.1,24.5-9.5,17.5-17.4,12-46.3-10.7-56.7C105,233.77,95.14,233,88.14,235Zm19,15.1c16,8,15.5,31.1-.9,38-5.2,2.1-13,1.9-17.7-.5-7.9-4-13.1-13.8-11.6-21.7C79.54,251.17,94.14,243.57,107.14,250.07Z"/></g></g></svg>