<svg xmlns="http://www.w3.org/2000/svg" viewBox="0 0 518 517"><defs><style>.cls-1{fill:#3497d3;fill-rule:evenodd;}</style></defs><g id="Layer_2" data-name="Layer 2"><g id="New_Layer" data-name="New Layer"><path class="cls-1" d="M153.5,58.6C95.2,90.8,38.8,122,28.2,127.8c-14,7.7-19.8,11.5-20.8,13.4C6.2,143.5,0,170.8,0,323.9,0,461.3,6.3,504.5,7.2,506.5,9.9,512.4-8,517,262,517s252.1-4.6,254.8-10.5c.9-2,1.2-45.2,1.2-182.6,0-152.1-.2-180.4-1.4-182.7-1.1-2.1-12.5-8.8-48.9-29-52.2-28.8-52.6-29-58.1-23.6-3.6,3.7-3.7,10-.1,13.4,1.3,1.3,21.7,12.9,45.2,26l42.8,23.6.3,170.2L498,492H454V334c0-171.9.3-162.2-5.5-164.8-2-.9-46.1-1.2-186.6-1.2-200.1,0-188.1-.3-190.7,5.5-.8,1.8-1.2,10.6-1.2,28.8,0,29.2.1,29.6,6.6,32.3,2.9,1.2,3.9,1.2,6.8,0,6.3-2.6,6.6-3.8,6.6-26.3V188H434V492H392V387.3l-2.3-4.4a25.87,25.87,0,0,0-6.6-7.4l-4.3-3-23.4-.3-23.3-.3-.3-53.4-.3-53.3-3-4.3a25.87,25.87,0,0,0-7.4-6.6l-4.4-2.3H263c-38.5,0-54.7.3-57.1,1.2-5.4,1.8-8.7,4.8-11.4,10.2l-2.5,5V371.9l-23.3.3-23.4.3-4,2.7a26.3,26.3,0,0,0-6.4,6.5l-2.4,3.8-.3,53.3-.3,53.2H90l-.2-95.6-.3-95.6-2.8-2.4a10.31,10.31,0,0,0-13.4,0l-2.8,2.4-.3,95.6L70,492H26l.2-170.2.3-170.2L67,129.3c51.6-28.6,97.3-53.9,151.3-83.7,23.5-13,43.2-23.6,43.8-23.6s18.5,9.7,39.9,21.5,40.3,22.1,42,22.7c6.5,2.2,13.6-4.4,12.3-11.4a12.74,12.74,0,0,0-3.1-5.1c-1.5-1.3-14.8-9.1-29.7-17.2s-34.2-18.9-43-23.7S263.4,0,262,0,214.9,24.7,153.5,58.6ZM232,288c0,10.2.4,16.8,1.2,18.5,2.3,5,4.8,5.5,28.8,5.5s26.5-.5,28.8-5.5c.8-1.7,1.2-8.3,1.2-18.5V272h20V372H212V272h20Zm40-6v10H252V272h20ZM172,408.6v16.6l3.4,3.4,3.4,3.4h22.6c24.7,0,27.1-.5,29.4-5.5.8-1.7,1.2-8.3,1.2-18.5V392h20V492H152V392h20Zm40-6.6v10H192V392h20Zm80,6.6v16.6l3.4,3.4,3.4,3.4h22.6c24.7,0,27.1-.5,29.4-5.5.8-1.7,1.2-8.3,1.2-18.5V392h20V492H272V392h20Zm40-6.6v10H312V392h20Z"/><path class="cls-1" d="M251,61.6c-30.8,8.2-41.2,47.4-18.6,70,24.1,24,65.1,10.7,70.9-23C308.4,79,280.3,53.8,251,61.6Zm21.1,21.2c16.8,8.7,15.1,33-2.7,39.8-14.3,5.4-30.2-6.5-29.2-21.8C241,89.2,250.7,80,262,80A21.48,21.48,0,0,1,272.1,82.8Z"/><path class="cls-1" d="M376.8,67.5c-8.5,4.7-5.1,18.5,4.5,18.5,4.3,0,9.2-3.8,10-7.7.6-3.1-1.2-8.1-3.6-10.1S379.8,65.8,376.8,67.5Z"/><path class="cls-1" d="M73.5,258.2c-5.6,4.9-4,13.4,3.1,16.4,2.9,1.2,3.9,1.2,6.8,0C93.6,270.3,91,256,80,256A9.66,9.66,0,0,0,73.5,258.2Z"/></g></g></svg>